<svg xmlns="http://www.w3.org/2000/svg" xmlns:xlink="http://www.w3.org/1999/xlink" width="378.667" height="330.667" version="1.0" viewBox="0 0 355 310">
 <defs>
  <linearGradient id="linearGradient7865">
   <stop style="stop-color:#2b2b2b" offset="0"/>
   <stop style="stop-color:#262626" offset="1"/>
  </linearGradient>
  <linearGradient id="linearGradient7857">
   <stop style="stop-color:#2b2b2b" offset="0"/>
   <stop style="stop-color:#262626" offset="1"/>
  </linearGradient>
  <linearGradient id="linearGradient4175">
   <stop style="stop-color:#2b2b2b" offset="0"/>
   <stop style="stop-color:#262626" offset="1"/>
  </linearGradient>
  <linearGradient id="linearGradient4169">
   <stop style="stop-color:#2b2b2b" offset="0"/>
   <stop style="stop-color:#262626" offset="1"/>
  </linearGradient>
  <linearGradient id="linearGradient4163">
   <stop style="stop-color:#2b2b2b" offset="0"/>
   <stop style="stop-color:#262626" offset="1"/>
  </linearGradient>
  <radialGradient id="radialGradient6443-7" cx="324.048" cy="44.086" r="10" fx="324.048" fy="44.086" gradientTransform="matrix(-3.7213277e-7,-2.1,2.0000005,-3.5441224e-7,361.82823,882.50001)" gradientUnits="userSpaceOnUse" xlink:href="#linearGradient6423-3"/>
  <linearGradient id="linearGradient6423-3">
   <stop style="stop-color:#000000" offset="0"/>
   <stop style="stop-color:#000000;stop-opacity:0" offset="1"/>
  </linearGradient>
  <linearGradient id="linearGradient5391">
   <stop style="stop-color:#000000;stop-opacity:0.92168677" offset="0"/>
   <stop style="stop-color:#000000;stop-opacity:0.74096388" offset=".125"/>
   <stop style="stop-color:#000000;stop-opacity:0.60240966" offset=".25"/>
   <stop style="stop-color:#000000;stop-opacity:0.33132529" offset=".5"/>
   <stop style="stop-color:#000000;stop-opacity:0.10843374" offset=".75"/>
   <stop style="stop-color:#000000;stop-opacity:0.03921569" offset=".875"/>
   <stop style="stop-color:#000000;stop-opacity:0" offset="1"/>
  </linearGradient>
  <linearGradient id="linearGradient5688" x1="398" x2="398" y1="143" y2="167.524" gradientTransform="translate(200,14)" gradientUnits="userSpaceOnUse" xlink:href="#linearGradient5391"/>
  <linearGradient id="linearGradient5785" x1="349.875" x2="306.707" y1="99" y2="99.1" gradientTransform="translate(175.125,14)" gradientUnits="userSpaceOnUse" xlink:href="#linearGradient5391"/>
  <linearGradient id="linearGradient5791" x1="350" x2="305.405" y1="99" y2="98.669" gradientTransform="matrix(-1,0,0,1,1020,14)" gradientUnits="userSpaceOnUse" xlink:href="#linearGradient5391"/>
  <linearGradient id="linearGradient6612" x1="396" x2="396" y1="66" y2="24.065" gradientTransform="translate(200,5)" gradientUnits="userSpaceOnUse" xlink:href="#linearGradient5391"/>
  <radialGradient id="radialGradient6443-7-5" cx="324.048" cy="44.086" r="10" fx="324.048" fy="44.086" gradientTransform="matrix(-3.7213277e-7,-2.1,2.0000005,-3.5441224e-7,-7.17177,882.62501)" gradientUnits="userSpaceOnUse" xlink:href="#linearGradient6423-3-7"/>
  <linearGradient id="linearGradient6423-3-7">
   <stop style="stop-color:#000000" offset="0"/>
   <stop style="stop-color:#000000;stop-opacity:0" offset="1"/>
  </linearGradient>
  <radialGradient id="radialGradient6995" cx="296.477" cy="80.417" r="17.5" fx="296.477" fy="80.417" gradientTransform="matrix(-0.01026927,-2.4576024,-2.5087696,0.01048303,629.79156,958.84256)" gradientUnits="userSpaceOnUse" xlink:href="#linearGradient5391"/>
  <radialGradient id="radialGradient6192" cx="296.451" cy="80.417" r="17.5" fx="296.451" fy="80.417" gradientTransform="matrix(0.01025353,-2.4422431,2.5112954,0.01054339,400.01035,844.15772)" gradientUnits="userSpaceOnUse" xlink:href="#linearGradient5391"/>
  <linearGradient id="linearGradient5688-2" x1="398" x2="398" y1="143" y2="170.938" gradientTransform="translate(200,14)" gradientUnits="userSpaceOnUse" xlink:href="#linearGradient5391-12"/>
  <linearGradient id="linearGradient5391-12">
   <stop style="stop-color:#000000" offset="0"/>
   <stop style="stop-color:#000000;stop-opacity:0.63855422" offset=".25"/>
   <stop style="stop-color:#000000;stop-opacity:0.33734939" offset=".5"/>
   <stop style="stop-color:#000000;stop-opacity:0.10843374" offset=".75"/>
   <stop style="stop-color:#000000;stop-opacity:0.03921569" offset=".875"/>
   <stop style="stop-color:#000000;stop-opacity:0" offset="1"/>
  </linearGradient>
  <linearGradient id="linearGradient5791-0" x1="350" x2="305" y1="99" y2="98.938" gradientTransform="matrix(-1,0,0,1,1020,14)" gradientUnits="userSpaceOnUse" xlink:href="#linearGradient5391-12"/>
  <linearGradient id="linearGradient5785-2" x1="349.875" x2="304.875" y1="99" y2="98.938" gradientTransform="translate(175.125,14)" gradientUnits="userSpaceOnUse" xlink:href="#linearGradient5391-12"/>
  <radialGradient id="radialGradient6995-3" cx="296.477" cy="80.417" r="17.5" fx="296.477" fy="80.417" gradientTransform="matrix(-1.0880955e-6,-2.0607086,-2.5714305,1.30944e-6,631.78624,842.01555)" gradientUnits="userSpaceOnUse" xlink:href="#linearGradient5391-12"/>
  <linearGradient id="linearGradient6612-5" x1="396" x2="396" y1="66" y2="29.938" gradientTransform="translate(200,5)" gradientUnits="userSpaceOnUse" xlink:href="#linearGradient5391-12"/>
  <linearGradient id="linearGradient7108">
   <stop style="stop-color:#000000" offset="0"/>
   <stop style="stop-color:#000000;stop-opacity:0.63855422" offset=".25"/>
   <stop style="stop-color:#000000;stop-opacity:0.33734939" offset=".5"/>
   <stop style="stop-color:#000000;stop-opacity:0.10843374" offset=".75"/>
   <stop style="stop-color:#000000;stop-opacity:0.03921569" offset=".875"/>
   <stop style="stop-color:#000000;stop-opacity:0" offset="1"/>
  </linearGradient>
  <radialGradient id="radialGradient6192-8" cx="296.451" cy="80.417" r="17.5" fx="296.451" fy="80.417" gradientTransform="matrix(-5.7484752e-7,-2.0606878,2.5714318,-7.5962304e-7,398.21419,731.89304)" gradientUnits="userSpaceOnUse" xlink:href="#linearGradient7108"/>
  <linearGradient id="linearGradient6972" x1="470" x2="470" y1="43" y2="63" gradientUnits="userSpaceOnUse" xlink:href="#linearGradient4163"/>
  <linearGradient id="linearGradient6981" x1="596" x2="596" y1="92" y2="112" gradientUnits="userSpaceOnUse" xlink:href="#linearGradient4175"/>
  <linearGradient id="linearGradient6989" x1="760" x2="760" y1="92" y2="112" gradientUnits="userSpaceOnUse" xlink:href="#linearGradient4169"/>
  <radialGradient id="radialGradient7795" cx="48.271" cy="177.376" r="17.5" fx="48.271" fy="177.376" gradientTransform="matrix(-2.4933681,0.01413418,-0.00768884,-1.3564071,616.72077,445.91621)" gradientUnits="userSpaceOnUse" xlink:href="#linearGradient5391"/>
  <radialGradient id="radialGradient7795-5" cx="48.271" cy="177.376" r="17.5" fx="48.271" fy="177.376" gradientTransform="matrix(-2.5024961,0.0053381,-0.00302853,-1.4198929,616.3348,457.60165)" gradientUnits="userSpaceOnUse" xlink:href="#linearGradient5391-85"/>
  <linearGradient id="linearGradient5391-85">
   <stop style="stop-color:#000000;stop-opacity:0.92168677" offset="0"/>
   <stop style="stop-color:#000000;stop-opacity:0.74096388" offset=".125"/>
   <stop style="stop-color:#000000;stop-opacity:0.60240966" offset=".25"/>
   <stop style="stop-color:#000000;stop-opacity:0.33132529" offset=".5"/>
   <stop style="stop-color:#000000;stop-opacity:0.10843374" offset=".75"/>
   <stop style="stop-color:#000000;stop-opacity:0.03921569" offset=".875"/>
   <stop style="stop-color:#000000;stop-opacity:0" offset="1"/>
  </linearGradient>
  <radialGradient id="radialGradient7795-6" cx="48.271" cy="177.376" r="17.5" fx="48.271" fy="177.376" gradientTransform="matrix(-2.5714291,-2.6430189e-4,1.6478255e-4,-1.5997355,619.09582,489.77183)" gradientUnits="userSpaceOnUse" xlink:href="#linearGradient5391-49"/>
  <linearGradient id="linearGradient5391-49">
   <stop style="stop-color:#000000;stop-opacity:0.92168677" offset="0"/>
   <stop style="stop-color:#000000;stop-opacity:0.74096388" offset=".125"/>
   <stop style="stop-color:#000000;stop-opacity:0.60240966" offset=".25"/>
   <stop style="stop-color:#000000;stop-opacity:0.33132529" offset=".5"/>
   <stop style="stop-color:#000000;stop-opacity:0.10843374" offset=".75"/>
   <stop style="stop-color:#000000;stop-opacity:0.03921569" offset=".875"/>
   <stop style="stop-color:#000000;stop-opacity:0" offset="1"/>
  </linearGradient>
  <radialGradient id="radialGradient7795-6-2" cx="48.271" cy="177.376" r="17.5" fx="48.271" fy="177.376" gradientTransform="matrix(-2.5714291,-2.6430189e-4,1.6478255e-4,-1.5997355,619.09582,489.77183)" gradientUnits="userSpaceOnUse" xlink:href="#linearGradient5391-49-5"/>
  <linearGradient id="linearGradient5391-49-5">
   <stop style="stop-color:#000000;stop-opacity:0.92168677" offset="0"/>
   <stop style="stop-color:#000000;stop-opacity:0.74096388" offset=".125"/>
   <stop style="stop-color:#000000;stop-opacity:0.60240966" offset=".25"/>
   <stop style="stop-color:#000000;stop-opacity:0.33132529" offset=".5"/>
   <stop style="stop-color:#000000;stop-opacity:0.10843374" offset=".75"/>
   <stop style="stop-color:#000000;stop-opacity:0.03921569" offset=".875"/>
   <stop style="stop-color:#000000;stop-opacity:0" offset="1"/>
  </linearGradient>
  <linearGradient id="linearGradient7859" x1="765.25" x2="765.25" y1="90.17" y2="111.922" gradientUnits="userSpaceOnUse" xlink:href="#linearGradient7857"/>
  <linearGradient id="linearGradient7867" x1="591.407" x2="591.366" y1="90.253" y2="112.046" gradientUnits="userSpaceOnUse" xlink:href="#linearGradient7865"/>
 </defs>
 <g transform="translate(0,-90)">
  <rect style="fill:#adadad;opacity:0" width="355" height="310" x="370" y="90" ry="0"/>
  <rect style="fill:#adadad;opacity:0" width="355" height="310" x="0" y="90" ry="0"/>
  <g id="decoration-bottom" transform="translate(-215,9.0625)">
   <path style="opacity:0.35;fill:url(#linearGradient5688)" transform="translate(-200,126)" d="m 525,164 v 25 10 5 10 10 25 h 145 v -25 -10 -10 -5 -10 -25 z"/>
   <path style="fill:#262626" transform="translate(0,140)" d="M 470,143 H 325 v 7 h 145 z"/>
   <path style="fill:#262626" transform="translate(0,140)" d="M 470,143 H 325 v 6 h 145 z"/>
  </g>
  <path id="decoration-center" style="fill:#262626" d="m 110,206.0625 v 86 h 145 v -86 z"/>
  <g id="decoration-top" transform="translate(-215,0.0625)">
   <path style="opacity:0.35;fill:url(#linearGradient6612)" transform="translate(-200,135)" d="m 525,5 v 15 6 4 10 H 670 V 30 26 20 5 Z"/>
   <path style="fill:#2b2b2b" transform="translate(0,140)" d="M 325,35 V 57 H 470 V 35 Z"/>
   <path style="fill:#303030" transform="translate(0,140)" d="M 470,36 H 325 v 1 h 145 z"/>
   <path style="fill:url(#linearGradient6972)" transform="translate(-85,134)" d="M 410,43 V 62.96875 63 72 H 555 V 63 62.96875 43 Z"/>
  </g>
  <g id="decoration-left" transform="translate(-239.875,9.0625)">
   <path style="opacity:0.35;fill:url(#linearGradient5785)" transform="translate(-175.125,126)" d="m 420.125,71 v 86 h 25 12 8 4.8125 10.1875 4 H 495 V 71 h -10.875 -4 -10.1875 -4.8125 -8 -12 z"/>
   <path style="fill:#262626" d="m 319.875,197 v 86 h 5 v -86 z"/>
   <path style="fill:#262626" transform="translate(-255.125,76)" d="m 576,121 v 86 h 4 10 9.875 H 604 604.875 605 V 121 H 604.875 604 599.875 590 580 Z"/>
  </g>
  <path style="opacity:0.65608467;fill:url(#radialGradient6443-7)" d="m 450,211 h -20 v 0.0625 h 20 z"/>
  <g id="decoration-topleft" transform="translate(-220,-25.0005)">
   <path style="opacity:0.35;fill:url(#radialGradient6192)" transform="translate(-275,110.063)" d="m 518,54.9375 c -9.972,0 -18,8.028 -18,18 v 12 9 1 2 15 V 120 120.9375 121 h 75 V 120.9375 120 111.9375 95 c 0,-2.77 2.23,-5 5,-5 h 10 10 5 V 55 h -5 V 54.9375 H 590 V 55 h -10 v -0.0625 h -18 -2 z"/>
   <g id="6utrh">
    <g id="decoration-toplefthaerty" transform="translate(0,1)">
     <g id="49093u" transform="translate(-19,25)">
      <path style="fill:url(#linearGradient7867)" transform="translate(-256,84.063)" d="m 580,90 c -2.77,0 -5,2.23 -5,5 V 111.9375 112 120 120.9375 121 h 1 V 120.9375 120 112 h 4 V 91 h 10 10 5 v -1 h -5 -10 z"/>
      <path style="fill:#303030" transform="translate(-256,84.063)" d="m 580,91 c -2.216,0 -4,1.784 -4,4 v 0.9375 C 576,93.76038 577.76038,92 579.9375,92 H 580 h 10 10 5 v -1 h -5 -10 z"/>
      <path style="fill:url(#linearGradient6981)" transform="translate(-256,84.063)" d="M 579.9375,92 C 577.76038,92 576,93.76038 576,95.9375 v 16 0.0625 8 0.9375 V 121 h 24 5 v -1 -28 h -5 -10 -10 z"/>
     </g>
    </g>
   </g>
  </g>
  <g id="decoration-topright" transform="translate(-170,-25)">
   <path style="opacity:0.35;fill:url(#radialGradient6995)" d="m 425,165.0625 v 35 h 25 c 2.77,0 5,2.23 5,5 v 17 9 h 75 v -9 -15 -2 -1 -9 -12 c 0,-9.972 -8.028,-18 -18,-18 h -42 -2 -18 -10 -10 z"/>
   <g id="decoration-toprightigb" transform="translate(250)">
    <g id="decoration-topright8989" transform="matrix(-1,0,0,1,524,26)">
     <path style="fill:url(#linearGradient7859)" transform="matrix(-1,0,0,1,1099,84.0625)" d="m 750,90 v 1 h 25 V 91.9375 112 h 4 v 8 0.9375 V 121 h 1 V 120.9375 120 112 111.9375 95 c 0,-2.77 -2.23,-5 -5,-5 z"/>
     <path style="fill:#303030" transform="matrix(-1,0,0,1,1099,84.0625)" d="m 750,91 v 1 h 25 0.0625 C 777.23962,92 779,93.76038 779,95.9375 V 95 c 0,-2.216 -1.784,-4 -4,-4 z"/>
     <path style="fill:url(#linearGradient6989)" transform="matrix(-1,0,0,1,1099,84.0625)" d="m 750,92 v 28 0.9375 V 121 h 29 V 120.9375 120 112.03125 111.96875 96 c 0,-2.17242 -1.76038,-3.9375 -3.9375,-3.9375 H 775 V 92 h -10 -10 z"/>
    </g>
   </g>
  </g>
  <g id="decoration-right" transform="matrix(-1,0,0,1,605,9.0625)">
   <path style="opacity:0.35;fill:url(#linearGradient5791)" transform="matrix(-1,0,0,1,1020,126)" d="m 700,71 v 86 h 11 4 15 8 12 25 V 71 h -25 -12 -8 -15 -4 z"/>
   <path style="fill:#262626" transform="translate(0,140)" d="m 320,57 v 86 h 5 V 57 Z"/>
   <path style="fill:#262626" transform="matrix(-1,0,0,1,1100,76)" d="m 750,121 v 86 h 5 9 0.875 0.125 1 9 4 v -86 h -4 -9 -1 -0.125 -0.875 -9 z"/>
  </g>
  <path style="opacity:0.65608467;fill:url(#radialGradient6443-7-5)" d="M 81,211.125 H 61 v 0.0625 h 20 z"/>
  <g id="decoration-inactive-bottom" transform="translate(145,9.0625)">
   <path style="opacity:0.35;fill:url(#linearGradient5688-2)" transform="translate(-200,126)" d="m 525,164 v 25 10 5 10 10 25 h 145 v -25 -10 -10 -5 -10 -25 z"/>
   <path style="fill:#262626" transform="translate(0,140)" d="M 470,143 H 325 v 7 h 145 z"/>
   <path style="fill:#262626" transform="translate(0,140)" d="M 470,143 H 325 v 6 h 145 z"/>
  </g>
  <path id="decoration-inactive-center" style="fill:#262626" d="m 470,206.0625 v 86 h 145 v -86 z"/>
  <g id="decoration-inactive-top" transform="translate(145,0.0625)">
   <path style="opacity:0.35;fill:url(#linearGradient6612-5)" transform="translate(-200,135)" d="m 525,5 v 15 6 4 10 H 670 V 30 26 20 5 Z"/>
   <path style="fill:#262626" transform="translate(0,140)" d="M 325,35 V 57 H 470 V 35 Z"/>
   <path style="fill:#262626" transform="translate(0,140)" d="M 470,36 H 325 v 1 h 145 z"/>
   <path style="fill:#262626" transform="translate(-85,134)" d="M 410,43 V 62.96875 63 72 H 555 V 63 62.96875 43 Z"/>
  </g>
  <g id="decoration-inactive-left" transform="translate(120.125,9.0625)">
   <path style="opacity:0.35;fill:url(#linearGradient5785-2)" transform="translate(-175.125,126)" d="m 420.125,71 v 86 h 25 12 8 4.8125 10.1875 4 H 495 V 71 h -10.875 -4 -10.1875 -4.8125 -8 -12 z"/>
   <path style="fill:#262626" d="m 319.875,197 v 86 h 5 v -86 z"/>
   <path style="fill:#262626" transform="translate(-255.125,76)" d="m 576,121 v 86 h 4 10 9.875 H 604 604.875 605 V 121 H 604.875 604 599.875 590 580 Z"/>
  </g>
  <g id="decoration-inactive-topleft" transform="translate(140,-25.0005)">
   <path style="opacity:0.35;fill:url(#radialGradient6192-8)" transform="translate(-275,110.063)" d="m 518,54.9375 c -9.972,0 -18,8.028 -18,18 v 12 9 1 2 15 V 120 120.9375 121 h 75 V 120.9375 120 111.9375 95 c 0,-2.77 2.23,-5 5,-5 h 10 10 5 V 55 h -5 V 54.9375 H 590 V 55 h -10 v -0.0625 h -18 -2 z"/>
   <g id="6utrh-9">
    <g id="decoration-toplefthaerty-5" transform="translate(0,1)">
     <g id="49093u-9" transform="translate(-19,25)">
      <path style="fill:#262626" transform="translate(-256,84.063)" d="m 580,90 c -2.77,0 -5,2.23 -5,5 V 111.9375 112 120 120.9375 121 h 1 V 120.9375 120 112 h 4 V 91 h 10 10 5 v -1 h -5 -10 z"/>
      <path style="fill:#262626" transform="translate(-256,84.063)" d="m 580,91 c -2.216,0 -4,1.784 -4,4 v 0.9375 C 576,93.76038 577.76038,92 579.9375,92 H 580 h 10 10 5 v -1 h -5 -10 z"/>
      <path style="fill:#262626" transform="translate(-256,84.063)" d="M 579.9375,92 C 577.76038,92 576,93.76038 576,95.9375 v 16 0.0625 8 0.9375 V 121 h 24 5 v -1 -28 h -5 -10 -10 z"/>
     </g>
    </g>
   </g>
  </g>
  <g id="decoration-inactive-topright" transform="translate(190,-25)">
   <path style="opacity:0.35;fill:url(#radialGradient6995-3)" d="m 425,165.0625 v 35 h 25 c 2.77,0 5,2.23 5,5 v 17 9 h 75 v -9 -15 -2 -1 -9 -12 c 0,-9.972 -8.028,-18 -18,-18 h -42 -2 -18 -10 -10 z"/>
   <g id="decoration-toprightigb-8" transform="translate(250)">
    <g id="decoration-topright8989-1" transform="matrix(-1,0,0,1,524,26)">
     <path style="fill:#262626" transform="matrix(-1,0,0,1,1099,84.0625)" d="m 750,90 v 1 h 25 V 91.9375 112 h 4 v 8 0.9375 V 121 h 1 V 120.9375 120 112 111.9375 95 c 0,-2.77 -2.23,-5 -5,-5 z"/>
     <path style="fill:#262626" transform="matrix(-1,0,0,1,1099,84.0625)" d="m 750,91 v 1 h 25 0.0625 C 777.23962,92 779,93.76038 779,95.9375 V 95 c 0,-2.216 -1.784,-4 -4,-4 z"/>
     <path style="fill:#262626" transform="matrix(-1,0,0,1,1099,84.0625)" d="m 750,92 v 28 0.9375 V 121 h 29 V 120.9375 120 112.03125 111.96875 96 c 0,-2.17242 -1.76038,-3.9375 -3.9375,-3.9375 H 775 V 92 h -10 -10 z"/>
    </g>
   </g>
  </g>
  <g id="decoration-inactive-right" transform="matrix(-1,0,0,1,965,9.0625)">
   <path style="opacity:0.35;fill:url(#linearGradient5791-0)" transform="matrix(-1,0,0,1,1020,126)" d="m 700,71 v 86 h 11 4 15 8 12 25 V 71 h -25 -12 -8 -15 -4 z"/>
   <path style="fill:#262626" transform="translate(0,140)" d="m 320,57 v 86 h 5 V 57 Z"/>
   <path style="fill:#262626" transform="matrix(-1,0,0,1,1100,76)" d="m 750,121 v 86 h 5 9 0.875 0.125 1 9 4 v -86 h -4 -9 -1 -0.125 -0.875 -9 z"/>
  </g>
  <g id="decoration-bottomright" transform="matrix(-1,0,0,1,750,-3.9375146)">
   <g id="hrh" transform="matrix(1,0,0,0.99932111,165,-10.666582)">
    <path style="opacity:0.35;fill:url(#radialGradient7795)" transform="matrix(1,0,0,1.0006794,-165,100.73497)" d="m 390,206 v 1.9375 15 29.96875 15 c 0,16.60872 13.38,29.96875 30,29.96875 h 15 c 0.90334,0 1.80267,-0.0174 2.6875,-0.0937 0.76218,0.0693 1.53164,0.0937 2.3125,0.0937 h 5 20 5 v 0.0625 h 10 10 5 V 213 h -24 -1 -5 v -5 -2 z"/>
   </g>
   <path style="fill:#262626" transform="translate(0,90)" d="m 465,206 v 7 h 30 v -1 h -29 v -6 z"/>
   <rect style="fill:#262626" width="29" height="6" x="466" y="296"/>
  </g>
  <g id="decoration-bottomleft" transform="translate(-385,-3.9375146)">
   <g id="hrh-6" transform="matrix(1,0,0,0.99932111,165,-10.666582)">
    <path style="opacity:0.35;fill:url(#radialGradient7795-5)" transform="matrix(1,0,0,1.0006794,-165,100.73497)" d="m 390,206 v 1.9375 15 29.96875 15 c 0,16.60872 13.38,29.96875 30,29.96875 h 15 c 0.90334,0 1.80267,-0.0174 2.6875,-0.0937 0.76218,0.0693 1.53164,0.0937 2.3125,0.0937 h 5 20 5 v 0.0625 h 10 10 5 V 213 h -24 -1 -5 v -5 -2 z"/>
   </g>
   <path style="fill:#262626" transform="translate(0,90)" d="m 465,206 v 7 h 30 v -1 h -29 v -6 z"/>
   <rect style="fill:#262626" width="29" height="6" x="466" y="296"/>
  </g>
  <g id="decoration-inactive-bottomleft" transform="translate(-25,-3.93751)">
   <g id="hrh-3" transform="matrix(1,0,0,0.99932111,165,-10.666582)">
    <path style="opacity:0.35;fill:url(#radialGradient7795-6)" transform="matrix(1,0,0,1.0006794,-165,100.73497)" d="m 390,206 v 1.9375 15 29.96875 15 c 0,16.60872 13.38,29.96875 30,29.96875 h 15 c 0.90334,0 1.80267,-0.0174 2.6875,-0.0937 0.76218,0.0693 1.53164,0.0937 2.3125,0.0937 h 5 20 5 v 0.0625 h 10 10 5 V 213 h -24 -1 -5 v -5 -2 z"/>
   </g>
   <path style="fill:#262626" transform="translate(0,90)" d="m 465,206 v 7 h 30 v -1 h -29 v -6 z"/>
   <rect style="fill:#262626" width="29" height="6" x="466" y="296"/>
  </g>
  <g id="decoration-inactive-bottomright" transform="matrix(-1,0,0,1,1110,-3.93751)">
   <g id="hrh-3-8" transform="matrix(1,0,0,0.99932111,165,-10.666582)">
    <path style="opacity:0.35;fill:url(#radialGradient7795-6-2)" transform="matrix(1,0,0,1.0006794,-165,100.73497)" d="m 390,206 v 1.9375 15 29.96875 15 c 0,16.60872 13.38,29.96875 30,29.96875 h 15 c 0.90334,0 1.80267,-0.0174 2.6875,-0.0937 0.76218,0.0693 1.53164,0.0937 2.3125,0.0937 h 5 20 5 v 0.0625 h 10 10 5 V 213 h -24 -1 -5 v -5 -2 z"/>
   </g>
   <path style="fill:#262626" transform="translate(0,90)" d="m 465,206 v 7 h 30 v -1 h -29 v -6 z"/>
   <rect style="fill:#262626" width="29" height="6" x="466" y="296"/>
  </g>
  <text style="font-weight:bold;font-size:9px;line-height:125%;font-family:'Droid Sans';letter-spacing:0px;word-spacing:0px;fill:#8e8e8e" x="169" y="188.91" xml:space="preserve">
   <tspan id="tspan7102-9" x="169" y="188.91">Active</tspan>
  </text>
  <text style="font-weight:bold;font-size:9px;line-height:125%;font-family:'Droid Sans';letter-spacing:0px;word-spacing:0px;fill:#eff0f1" x="169" y="187.91" xml:space="preserve">
   <tspan id="tspan7102" x="169" y="187.91">Active</tspan>
  </text>
  <text style="font-weight:bold;font-size:9px;line-height:125%;font-family:'Droid Sans';letter-spacing:0px;word-spacing:0px;fill:#626262" x="524.91" y="188.91" xml:space="preserve">
   <tspan id="tspan7127-9" x="524.91" y="188.91">Inactive</tspan>
  </text>
  <text style="font-weight:bold;font-size:9px;line-height:125%;font-family:'Droid Sans';letter-spacing:0px;word-spacing:0px;fill:#787878" x="524.91" y="187.91" xml:space="preserve">
   <tspan id="tspan7127" x="524.91" y="187.91">Inactive</tspan>
  </text>
 </g>
</svg>
