<svg xmlns="http://www.w3.org/2000/svg" width="38.4pt" height="38.4pt">
 <rect fill="#34495e" width="30.893pt" height="24.012pt" rx="1.555pt" ry="1.628pt" transform="translate(4.54304 8.02025)"/>
 <rect fill="#2980b9" width="28.093pt" height="17.013pt" transform="translate(6.32342 11.5443)"/>
 <rect fill="#95a5a6" width="36.934pt" height="2.868pt" rx="1.369pt" ry="1.361pt" transform="translate(.920916 35.7873)"/>
 <rect fill="#95a5a6" width="36.934pt" height="1.262pt" transform="translate(.915283 35.7826)"/>
 <rect fill="#bdc3c7" width="8.988pt" height=".838pt" transform="translate(18.3563 35.7722)"/>
 <circle fill="#2980b9" cx=".709pt" cy=".709pt" r=".709pt" transform="translate(22.8745 8.79924)"/>
 <path fill="#34495e" fill-rule="evenodd" transform="translate(23.3468 9.25063)" d="m .850633.425316c0-.234895-.190421-.425316-.425317-.425316-.234895 0-.425316.190421-.425316.425316 0 .234896.190421.425317.425316.425317.234896 0 .425317-.190421.425317-.425317"/>
 <path fill="#bdc3c7" fill-rule="evenodd" transform="translate(23.6708 9.11417)" d="m .621671.310836c0-.17167-.139166-.310836-.310835-.310836-.17167 0-.310836.139166-.310836.310836 0 .171669.139166.310835.310836.310835.171669 0 .310835-.139166.310835-.310835"/>
</svg>
