<svg xmlns="http://www.w3.org/2000/svg" width="48" height="48">
 <path fill="#00ccbb" d="m4 10v30c0 1.108.892 2 2 2h36c1.108 0 2-.892 2-2v-30z"/>
 <path fill="#4b4b4b" d="m6 6c-1.108 0-2 .892-2 2v2h40v-2c0-1.108-.892-2-2-2z"/>
 <path fill="#ffffff" opacity=".1" d="m6 6c-1.108 0-2 .892-2 2v1c0-1.108.892-2 2-2h36c1.108 0 2 .892 2 2v-1c0-1.108-.892-2-2-2z"/>
 <path fill="#4b4b4b" d="m16 38c-1.108 0-2 .892-2 2v2h20v-2c0-1.108-.892-2-2-2z"/>
 <path opacity=".3" d="m4 39v1c0 1.108.892 2 2 2h36c1.108 0 2-.892 2-2v-1c0 1.108-.892 2-2 2h-36c-1.108 0-2-.892-2-2z"/>
</svg>
